PLOT: Noah Melville (Malcolm McDowell), a popular college professor and confirmed sensualist, provides scholarships for gorgeous college girls through an escort service, whose satisfied clients include chairman of the school board (Tim Bottoms) and even the Mayor of their idyllic college town When a young woman s dead body is found near the campus, the new detective in town, Patrick Kelly (Angus Macfadyen) investigates, leading him to the professor. Exposed, Noah must leave his devoted wife and young daughter and flee the law Kelly, takes the law into his own hands to bring Noah to justice with surprising results CAST Malcolm McDowell .... Noah Melville Angus Macfadyen .... Patrick Kelly Elizabeth Rodriguez .... Beck Timothy Bottoms .... Cameron Morris Bellamy Young .... Daniella Dee Wallace .... Dean Clark Taryn Southern .... Dyonesia Whitney Able .... Rachel Lilly McDowell .... Evelyn Jeff D'Agostino .... Tom Sean McCarthy .... John Anders Shahar Sorek .... Peter Samantha Pallett .... Juliet Lou Mulford .... Angela Ashley Wren Collins .... Marina
 
http://www.imdb.com/title/tt1196338/

Format : AVI
Format/Info : Audio Video Interleave
File size : 700 MiB
Duration : 1h 36mn
Overall bit rate : 1 011 Kbps
Writing application : VirtualDubMod 1.5.10.2 (build 2540/release)
Writing library : VirtualDubMod build 2540/release

Video
ID : 0
Format : MPEG-4 Visual
Format profile : Advanced Simple@L5
Format settings, BVOP : Yes
Format settings, QPel : No
Format settings, GMC : No warppoints
Format settings, Matrix : Default (H.263)
Codec ID : XVID
Codec ID/Hint : XviD
Duration : 1h 36mn
Bit rate : 867 Kbps
Width : 624 pixels
Height : 352 pixels
Display aspect ratio : 16:9
Frame rate : 23.976 fps
Color space : YUV
Chroma subsampling : 4:2:0
Bit depth : 8 bits
Scan type : Progressive
Bits/(Pixel*Frame) : 0.165
Stream size : 601 MiB (86%)
Writing library : XviD 1.2.1 (UTC 2008-12-04)

Audio
ID : 1
Format : MPEG Audio
Format version : Version 1
Format profile : Layer 3
Mode : Joint stereo
Mode extension : MS Stereo
Codec ID : 55
Codec ID/Hint : MP3
Duration : 1h 36mn
Bit rate mode : Variable
Bit rate : 128 Kbps
Channel(s) : 2 channels
Sampling rate : 48.0 KHz
Stream size : 90.8 MiB (13%)
Alignment : Aligned on interleaves
Interleave, duration : 24 ms (0.58 video frame)
Interleave, preload duration : 506 ms
Writing library : LAME3.90.
Encoding settings : -m j -V 4 -q 2 -lowpass 17.6 --abr 128